<?xml version="1.0" encoding="UTF-8"?><svg xmlns="http://www.w3.org/2000/svg" viewBox="0 0 404.76 552.68"><defs><style>.cls-1{fill:#dae3ef;}.cls-2{fill:#4b78bc;}.cls-3{fill:none;stroke:#4b78bc;stroke-linecap:round;stroke-miterlimit:10;stroke-width:15px;}</style></defs><g id="icons"><path class="cls-1" d="m397.69,475c0,38.55-53.79,67.16-195,69.8-135.59,2.53-195-31.25-195-69.8s62.17-72.59,195-69.8c107.51,2.26,195,16.72,195,69.8Z"/></g><g id="Layer_1"><path class="cls-3" d="m262.11,408.05c78.55,6.41,135.58,24.1,135.58,66.95,0,38.55-53.79,67.16-195,69.8-135.59,2.53-195-31.25-195-69.8,0-31.38,41.19-59.77,128.15-67.74"/><path class="cls-2" d="m197.27,497.66c-5.01-4.76-5.08-15.03-5.08-21.92-.08-193.97-.22-12.49.22-206.46.04-16.27,2.37-24.03-16.24-27.71-62.16-12.28-100.34-67.47-95.34-133.38C84.93,53.94,135.77,4.32,190.79.86c64.84-4.07,118.83,36.48,131.54,98.8,13.16,64.56-23.25,130.96-88.93,142.5-17.13,3.01-19.06,10.59-19.04,24.73.28,195.01.2,14.56.11,209.57,0,6.7.04,17.22-4.98,21.7-1.59,1.42-10.67.96-12.21-.5Z"/></g></svg>