<?xml version="1.0" encoding="UTF-8"?><svg xmlns="http://www.w3.org/2000/svg" viewBox="0 0 374.9705 344.2142"><defs><style>.cls-1{fill:#dae3ef;}.cls-2{fill:#4b78bc;}</style></defs><g id="Layer_1"><path class="cls-1" d="m254.4931,110.2623c-3.4548,6.8054-6.7498,13.3957-10.1158,19.908-11.6595,22.558-29.93,21.0241-42.0174,7.553-3.4046-3.7944-6.8777-7.4585-10.5332-11.4136-1.7473,3.671-3.2349,7.3402-5.0798,10.5771-7.4882,13.1385-16.13,23.8549-28.8381,20.6401-6.044-1.529-11.8547-5.4324-17.6069-8.8475-3.8205-2.2683-7.3502-5.5765-11.2119-8.5761-4.5872,5.9127-9.1136,11.9204-13.7676,17.7104-10.014,12.4585-20.7611,15.1069-33.0324,6.6416-7.841-5.409-14.6773-11.8747-19.6509-22.4003-2.1694-4.5911-2.8663-4.1591-5.3807.3293-5.0856,9.0783-10.0843,18.2944-15.5349,26.8939-4.992,7.876-12.0178,10.3687-18.9564,11.5074-2.4675.4049-5.2289-2.9903-8.7659-5.2257,2.3101-.9363,3.5638-1.4179,4.8067-1.9524,7.9863-3.4342,14.6235-9.6904,19.8606-19.2761,5.7605-10.5438,10.886-21.5102,13.9794-34.379,1.617-6.7268,6.278-8.7211,10.2329-11.0385.994-.5825,3.8349,2.7365,4.7017,5.1284,1.3395,3.696,1.5084,8.2468,2.529,12.2426,3.2391,12.682,7.9375,23.5025,16.8639,29.5666,5.0359,3.4212,9.991,3.9427,14.2991-.5708,5.4221-5.6807,10.2296-12.6227,15.2057-19.1763.861-1.134,1.6692-2.984,1.771-4.601.4325-6.8679,4.017-9.1504,7.4835-11.8367,5.3136-4.1176,7.1613-3.8331,10.4083,3.3951,5.0557,11.2548,12.2996,17.5117,20.9307,21.225,4.3534,1.8729,8.3059.975,11.0873-3.9273,3.5484-6.2545,6.6228-13.1329,9.5626-20.0483,1.8573-4.369,3.0228-9.3507,4.6341-13.957,1.3076-3.7381,9.4255-9.8467,12.0202-8.6417,1.4622.6791,2.876,2.6362,3.7933,4.546,2.5279,5.2626,4.449,11.2047,7.236,16.1255,3.0017,5.2998,6.3857,10.4137,10.2013,14.3896,4.4333,4.6197,8.013,3.6891,11.2484-2.5933,4.3178-8.3842,8.1305-17.3272,12.0577-26.1273,1.0598-2.3746,1.8976-5.0194,2.5795-7.6805,1.8156-7.0845,4.9113-11.6563,10.1-13.8557,4.6203-1.9585,6.8684-1.4283,9.0794,4.8258,2.635,7.4535,4.6169,15.5289,7.8472,22.3667,3.2014,6.7766,7.0348,13.5323,11.6024,18.1932,8.4864,8.6597,16.7767,6.0274,23.0599-6.0323,2.5062-4.8103,4.7298-10.0567,6.5126-15.5004,1.2127-3.7028,2.6784-5.8569,5.3411-7.1997,9.039-4.5587,9.0026-4.6998,13.613,7.764,1.2788,3.4572,2.49,6.9757,3.882,10.3343,4.6026,11.1056,13.4412,15.8258,21.9627,11.916,1.8662-.8562,3.8157-2.1516,5.6714-1.9792,1.565.1454,3.4073,1.6918,4.4258,3.4703.5456.9528.0574,4.3882-.7473,5.4991-1.6236,2.241-3.6418,4.2344-5.7429,5.323-12.8459,6.6555-23.6562.4347-33.4304-11.7678-1.8671-2.331-3.7456-4.6427-5.8688-7.2729-1.2951,2.1655-3.1615,5.1084-4.8926,8.2117-7.8581,14.087-17.9628,17.7627-29.701,13.5253-11.9355-4.3085-20.6087-15.1871-27.4843-29.5504-.6304-1.317-1.2437-2.6514-1.8734-3.9693-.0669-.1401-.19-.2232-.3579-.4126Z"/><path class="cls-1" d="m250.6392,159.918c-3.4548,6.8054-6.7498,13.3957-10.1158,19.908-11.6595,22.558-29.93,21.0241-42.0174,7.553-3.4046-3.7944-6.8777-7.4585-10.5332-11.4136-1.7473,3.671-3.2349,7.3402-5.0798,10.5771-7.4882,13.1385-16.13,23.8549-28.8381,20.6401-6.044-1.529-11.8547-5.4324-17.6069-8.8475-3.8205-2.2683-7.3502-5.5765-11.2119-8.5761-4.5872,5.9127-9.1136,11.9204-13.7676,17.7104-10.014,12.4585-20.7611,15.1069-33.0324,6.6416-7.841-5.409-14.6773-11.8747-19.6509-22.4003-2.1694-4.5911-2.8663-4.1591-5.3807.3293-5.0856,9.0783-10.0843,18.2944-15.5349,26.8939-4.992,7.876-12.0178,10.3687-18.9564,11.5074-2.4675.4049-5.2289-2.9903-8.7659-5.2257,2.3101-.9363,3.5638-1.4179,4.8067-1.9524,7.9863-3.4342,14.6235-9.6904,19.8606-19.2761,5.7605-10.5438,10.886-21.5102,13.9794-34.379,1.617-6.7268,6.278-8.7211,10.2329-11.0385.994-.5825,3.8349,2.7365,4.7017,5.1284,1.3395,3.696,1.5084,8.2468,2.529,12.2426,3.2391,12.682,7.9375,23.5025,16.8639,29.5666,5.0359,3.4212,9.991,3.9427,14.2991-.5708,5.4221-5.6807,10.2296-12.6227,15.2057-19.1763.861-1.134,1.6692-2.984,1.771-4.601.4325-6.8679,4.017-9.1504,7.4835-11.8367,5.3136-4.1176,7.1613-3.8331,10.4083,3.3951,5.0557,11.2548,12.2996,17.5117,20.9307,21.225,4.3534,1.8729,8.3059.975,11.0873-3.9273,3.5484-6.2545,6.6228-13.1329,9.5626-20.0483,1.8573-4.369,3.0228-9.3507,4.6341-13.957,1.3076-3.7381,9.4255-9.8467,12.0202-8.6417,1.4622.6791,2.876,2.6362,3.7933,4.546,2.5279,5.2626,4.449,11.2047,7.236,16.1255,3.0017,5.2998,6.3857,10.4137,10.2013,14.3896,4.4333,4.6197,8.013,3.6891,11.2484-2.5933,4.3178-8.3842,8.1305-17.3272,12.0577-26.1273,1.0598-2.3746,1.8976-5.0194,2.5795-7.6805,1.8156-7.0845,4.9113-11.6563,10.1-13.8557,4.6203-1.9585,6.8684-1.4283,9.0794,4.8258,2.635,7.4535,4.6169,15.5289,7.8472,22.3667,3.2014,6.7766,7.0348,13.5323,11.6024,18.1932,8.4864,8.6597,16.7767,6.0274,23.0599-6.0323,2.5062-4.8103,4.7298-10.0567,6.5126-15.5004,1.2127-3.7028,2.6784-5.8569,5.3411-7.1997,9.039-4.5587,9.0026-4.6998,13.613,7.764,1.2788,3.4572,2.49,6.9757,3.882,10.3343,4.6026,11.1056,13.4412,15.8258,21.9627,11.916,1.8662-.8562,3.8157-2.1516,5.6714-1.9792,1.565.1454,3.4073,1.6918,4.4258,3.4703.5456.9528.0574,4.3882-.7473,5.4991-1.6236,2.241-3.6418,4.2344-5.7429,5.323-12.8459,6.6555-23.6562.4347-33.4304-11.7678-1.8671-2.331-3.7456-4.6427-5.8688-7.2729-1.2951,2.1655-3.1615,5.1084-4.8926,8.2117-7.8581,14.087-17.9628,17.7627-29.701,13.5253-11.9355-4.3085-20.6087-15.1871-27.4843-29.5504-.6304-1.317-1.2437-2.6514-1.8734-3.9693-.0669-.1401-.19-.2232-.3579-.4126Z"/><path class="cls-1" d="m250.6392,209.5738c-3.4548,6.8054-6.7498,13.3957-10.1158,19.908-11.6595,22.558-29.93,21.0241-42.0174,7.553-3.4046-3.7944-6.8777-7.4585-10.5332-11.4136-1.7473,3.671-3.2349,7.3402-5.0798,10.5771-7.4882,13.1385-16.13,23.8549-28.8381,20.6401-6.044-1.529-11.8547-5.4324-17.6069-8.8475-3.8205-2.2683-7.3502-5.5765-11.2119-8.5761-4.5872,5.9127-9.1136,11.9204-13.7676,17.7104-10.014,12.4585-20.7611,15.1069-33.0324,6.6416-7.841-5.409-14.6773-11.8747-19.6509-22.4003-2.1694-4.5911-2.8663-4.1591-5.3807.3293-5.0856,9.0783-10.0843,18.2944-15.5349,26.8939-4.992,7.876-12.0178,10.3687-18.9564,11.5074-2.4675.4049-5.2289-2.9903-8.7659-5.2257,2.3101-.9363,3.5638-1.4179,4.8067-1.9524,7.9863-3.4342,14.6235-9.6904,19.8606-19.2761,5.7605-10.5438,10.886-21.5102,13.9794-34.379,1.617-6.7268,6.278-8.7211,10.2329-11.0385.994-.5825,3.8349,2.7365,4.7017,5.1284,1.3395,3.696,1.5084,8.2468,2.529,12.2426,3.2391,12.682,7.9375,23.5025,16.8639,29.5666,5.0359,3.4212,9.991,3.9427,14.2991-.5708,5.4221-5.6807,10.2296-12.6227,15.2057-19.1763.861-1.134,1.6692-2.984,1.771-4.601.4325-6.8679,4.017-9.1504,7.4835-11.8367,5.3136-4.1176,7.1613-3.8331,10.4083,3.3951,5.0557,11.2548,12.2996,17.5117,20.9307,21.225,4.3534,1.8729,8.3059.975,11.0873-3.9273,3.5484-6.2545,6.6228-13.1329,9.5626-20.0483,1.8573-4.369,3.0228-9.3507,4.6341-13.957,1.3076-3.7381,9.4255-9.8467,12.0202-8.6417,1.4622.6791,2.876,2.6362,3.7933,4.546,2.5279,5.2626,4.449,11.2047,7.236,16.1255,3.0017,5.2998,6.3857,10.4137,10.2013,14.3896,4.4333,4.6197,8.013,3.6891,11.2484-2.5933,4.3178-8.3842,8.1305-17.3272,12.0577-26.1273,1.0598-2.3746,1.8976-5.0194,2.5795-7.6805,1.8156-7.0845,4.9113-11.6563,10.1-13.8557,4.6203-1.9585,6.8684-1.4283,9.0794,4.8258,2.635,7.4535,4.6169,15.5289,7.8472,22.3667,3.2014,6.7766,7.0348,13.5323,11.6024,18.1932,8.4864,8.6597,16.7767,6.0274,23.0599-6.0323,2.5062-4.8103,4.7298-10.0567,6.5126-15.5004,1.2127-3.7028,2.6784-5.8569,5.3411-7.1997,9.039-4.5587,9.0026-4.6998,13.613,7.764,1.2788,3.4572,2.49,6.9757,3.882,10.3343,4.6026,11.1056,13.4412,15.8258,21.9627,11.916,1.8662-.8562,3.8157-2.1516,5.6714-1.9792,1.565.1454,3.4073,1.6918,4.4258,3.4703.5456.9528.0574,4.3882-.7473,5.4991-1.6236,2.241-3.6418,4.2344-5.7429,5.323-12.8459,6.6555-23.6562.4347-33.4304-11.7678-1.8671-2.331-3.7456-4.6427-5.8688-7.2729-1.2951,2.1655-3.1615,5.1084-4.8926,8.2117-7.8581,14.087-17.9628,17.7627-29.701,13.5253-11.9355-4.3085-20.6087-15.1871-27.4843-29.5504-.6304-1.317-1.2437-2.6514-1.8734-3.9693-.0669-.1401-.19-.2232-.3579-.4126Z"/></g><g id="Layer_9"><path class="cls-2" d="m193.6737,344.2142c-.2228-.279-.4102-.4907-.5726-.7201-11.9004-16.8078-23.8231-33.5998-35.6904-50.4309-11.2293-15.9264-22.248-31.9968-32.5976-48.5157-6.3717-10.1699-12.5187-20.4729-18.1427-31.0801-5.8478-11.0294-11.457-22.1741-16.1426-33.7607-4.8097-11.8931-8.8421-24.0313-11.3288-36.6394-2.2389-11.3517-3.1413-22.7873-2.3512-34.3716.8924-13.0832,3.8512-25.6432,9.098-37.6287,3.6039-8.2326,7.9466-16.0529,13.3425-23.3101,9.1669-12.3291,20.1845-22.5827,33.2426-30.6262,11.8138-7.277,24.5474-12.2661,38.1589-14.9872,8.8415-1.7675,17.7787-2.44,26.777-2.1436,21.5047.7084,41.3534,6.8129,59.4797,18.4613,8.7032,5.5929,16.4086,12.3346,23.4137,19.9397,6.4772,7.0319,12.0221,14.7143,16.4507,23.1673,5.3921,10.2921,9.5954,21.046,11.7903,32.5126,1.9806,10.347,2.6217,20.7661,1.883,31.2885-.8913,12.6953-3.5259,25.0294-7.4435,37.1007-4.7956,14.7765-11.0342,28.9485-18.1089,42.7639-8.2186,16.0491-17.4139,31.517-27.1563,46.6873-14.0706,21.9099-29.2173,43.0672-44.2599,64.3012-6.4505,9.1054-12.889,18.2193-19.3341,27.3284-.1449.2048-.3047.3991-.5075.6633Zm70.2715-226.9487c-.2942-38.509-30.7115-69.9887-69.5833-70.3593-37.5059-.3575-69.846,28.9546-70.8773,68.1885-1.0813,41.1358,31.5015,71.7673,68.9714,72.3426,38.5763.5923,70.9742-29.5834,71.4893-70.1718Z"/></g></svg>