<?xml version="1.0" encoding="UTF-8"?><svg xmlns="http://www.w3.org/2000/svg" viewBox="0 0 374.9705 512"><defs><style>.cls-1{fill:#f9a673;}.cls-2{fill:#4b78bc;}.cls-3{fill:none;stroke:#f9a673;stroke-linecap:round;stroke-miterlimit:10;stroke-width:15px;}</style></defs><g id="icons"><path class="cls-2" d="m367.3268,438.2116c0,35.5232-49.5704,61.8907-179.6928,64.3205-124.946,2.3332-179.6928-28.7973-179.6928-64.3205s57.2922-66.8906,179.6928-64.3205c99.0713,2.0802,179.6928,15.4107,179.6928,64.3205Z"/></g><g id="Layer_1"><path class="cls-3" d="m242.3897,376.5197c72.385,5.9078,124.9371,22.204,124.9371,61.692,0,35.5232-49.5704,61.8907-179.6928,64.3205-124.946,2.3332-179.6928-28.7973-179.6928-64.3205,0-28.9148,37.9586-55.0761,118.0909-62.4231"/><path class="cls-1" d="m182.6422,459.0965c-4.6139-4.3887-4.6803-13.8517-4.6829-20.2016-.0756-178.7404-.2052-11.5072.2001-190.2466.0341-14.989,2.1848-22.1414-14.9693-25.531-57.2809-11.3189-92.4586-62.1698-87.8581-122.912C79.1185,50.2101,125.969,4.4855,176.6704,1.3023c59.7532-3.7515,109.5051,33.619,121.2086,91.0443,12.1237,59.4871-21.4218,120.6803-81.95,131.3134-15.7892,2.7738-17.5592,9.7544-17.5408,22.7912.2554,179.6959.1884,13.4181.1015,193.1143-.003,6.176.0351,15.8696-4.5933,19.9956-1.465,1.306-9.832.8881-11.2542-.4646Z"/></g></svg>