<?xml version="1.0" encoding="UTF-8"?><svg xmlns="http://www.w3.org/2000/svg" viewBox="0 0 374.97 512"><defs><style>.cls-1{fill:#dae3ef;}.cls-2{fill:#4b78bc;}.cls-3{fill:none;stroke:#4b78bc;stroke-linecap:round;stroke-miterlimit:10;stroke-width:15px;}</style></defs><g id="icons"><path class="cls-1" d="m367.33,438.21c0,35.52-49.57,61.89-179.69,64.32-124.95,2.33-179.69-28.8-179.69-64.32s57.29-66.89,179.69-64.32c99.07,2.08,179.69,15.41,179.69,64.32Z"/></g><g id="Layer_1"><path class="cls-3" d="m242.39,376.52c72.39,5.91,124.94,22.2,124.94,61.69,0,35.52-49.57,61.89-179.69,64.32-124.95,2.33-179.69-28.8-179.69-64.32,0-28.91,37.96-55.08,118.09-62.42"/><path class="cls-2" d="m182.64,459.1c-4.61-4.39-4.68-13.85-4.68-20.2-.08-178.74-.21-11.51.2-190.25.03-14.99,2.18-22.14-14.97-25.53-57.28-11.32-92.46-62.17-87.86-122.91C79.12,50.21,125.97,4.49,176.67,1.3c59.75-3.75,109.51,33.62,121.21,91.04,12.12,59.49-21.42,120.68-81.95,131.31-15.79,2.77-17.56,9.75-17.54,22.79.26,179.7.19,13.42.1,193.11,0,6.18.04,15.87-4.59,20-1.47,1.31-9.83.89-11.25-.46Z"/></g></svg>